<?xml version="1.0" encoding="UTF-8" standalone="no"?>
<svg
   xmlns:dc="http://purl.org/dc/elements/1.1/"
   xmlns:cc="http://creativecommons.org/ns#"
   xmlns:rdf="http://www.w3.org/1999/02/22-rdf-syntax-ns#"
   xmlns:svg="http://www.w3.org/2000/svg"
   xmlns="http://www.w3.org/2000/svg"
   xmlns:sodipodi="http://sodipodi.sourceforge.net/DTD/sodipodi-0.dtd"
   xmlns:inkscape="http://www.inkscape.org/namespaces/inkscape"
   inkscape:version="1.0 (4035a4fb49, 2020-05-01)"
   sodipodi:docname="death-skull-blue-noback.svg"
   id="svg6"
   version="1.1"
   viewBox="0 0 512 512"
   style="height: 512px; width: 512px;">
  <metadata
     id="metadata12">
    <rdf:RDF>
      <cc:Work
         rdf:about="">
        <dc:format>image/svg+xml</dc:format>
        <dc:type
           rdf:resource="http://purl.org/dc/dcmitype/StillImage" />
      </cc:Work>
    </rdf:RDF>
  </metadata>
  <defs
     id="defs10" />
  <sodipodi:namedview
     inkscape:current-layer="svg6"
     inkscape:window-maximized="1"
     inkscape:window-y="-8"
     inkscape:window-x="1912"
     inkscape:cy="285.24495"
     inkscape:cx="118.34476"
     inkscape:zoom="1.1628592"
     showgrid="false"
     id="namedview8"
     inkscape:window-height="1009"
     inkscape:window-width="1920"
     inkscape:pageshadow="2"
     inkscape:pageopacity="0"
     guidetolerance="10"
     gridtolerance="10"
     objecttolerance="10"
     borderopacity="1"
     bordercolor="#666666"
     pagecolor="#ffffff" />
  <path
     style="opacity:1;fill:#ffffff;fill-opacity:1;stroke:#000000;stroke-width:18.6;stroke-miterlimit:4;stroke-dasharray:none;stroke-opacity:1"
     d="m 271.59112,35.868208 c -108,0 -215.997296,54 -215.997296,134.998202 0,54 40.5,80.9982 40.5,134.9982 0,40.5 -13.5,40.5 -13.5,67.5 0,13.4982 43.208996,28.8018 80.998196,40.4982 v 54 h 215.9973 v -54 c 0,0 81.5103,-25.1613 81,-40.5 -0.8397,-25.1523 -13.5,-27 -13.5,-67.4982 0,-27 41.0778,-82.278 40.4982,-134.9982 0,-81.000002 -107.9982,-134.998202 -215.9964,-134.998202 z m -81,161.997302 c 29.8233,0 54,24.1776 54,54 0,29.8224 -24.1767,54 -54,54 -29.8206,-9e-4 -53.9973,-24.1785 -53.9973,-54.0009 0,-29.8224 24.1758,-54 53.9982,-54 z m 161.9982,0 c 29.8224,0 54,24.1776 54,54 0,29.8224 -24.1776,54 -54,54 -29.8224,0 -54,-24.1776 -54,-54 0,-29.8224 24.1776,-54 54,-54 z m -80.9982,94.5 c 13.5,0 40.5,54 40.5,67.5 0,26.9982 0,26.9982 -13.5,26.9982 h -54 c -13.5,0 -13.5,0 -13.5,-27 0,-13.5 27,-67.4982 40.5,-67.4982 z"
     fill="#0000ff"
     fill-opacity="1"
     id="path2" />
</svg>
